# xmcd
#
# Track frame offsets:
#	150
#	18599
#	36385
#	54651
#	71285
#	90313
#	108486
#	126107
#	146407
#	164856
#	182642
#	200908
#	217542
#	236570
#	254743
#	272364
#
# Disc length: 3900 seconds
#
# Revision: 0
# Processed by: cddbd v1.5.2PL0 Copyright (c) Steve Scherf et al.
# Submitted via: audiograbber 1.83.01
#
DISCID=e90f3a10
DTITLE=Chartbuster HotHitsMonthly Country July 2009 Vol 2 - CB60412
DYEAR=2009
DGENRE=Country
TTITLE0=Rucker, Darius - Alright By Me
TTITLE1=Lambert, Miranda - Dead Flowers
TTITLE2=Vassar, Phil - Bobby With An I
TTITLE3=Lee, Jesse - It's A Girl Thing
TTITLE4=Bryan, Luke - Do I
TTITLE5=Swift, Taylor - You Belong With Me
TTITLE6=Otto, James - Since You Brought It Up
TTITLE7=Williams, Hank Jr - Red, White and Pinkslip Blues
TTITLE8=Rucker, Darius - Alright By Me
TTITLE9=Lambert, Miranda - Dead Flowers
TTITLE10=Vassar, Phil - Bobby With An I
TTITLE11=Lee, Jesse - It's A Girl Thing
TTITLE12=Bryan, Luke - Do I
TTITLE13=Swift, Taylor - You Belong With Me
TTITLE14=Otto, James - Since You Brought It Up
TTITLE15=Williams, Hank Jr - Red, White and Pinkslip Blues
EXTD=
EXTT0=
EXTT1=
EXTT2=
EXTT3=
EXTT4=
EXTT5=
EXTT6=
EXTT7=
EXTT8=
EXTT9=
EXTT10=
EXTT11=
EXTT12=
EXTT13=
EXTT14=
EXTT15=
PLAYORDER=
